# xmcd
#
# Track frame offsets:
#	150
#	30037
#	58586
#	86518
#	116336
#	159050
#	185941
#	205735
#	251547
#	276505
#
# Disc length: 3910 seconds
#
# Revision: 1
# Processed by: cddbd v1.5.2PL0 Copyright (c) Steve Scherf et al.
# Submitted via: audiograbber 1.83.01
#
DISCID=7c0f440a
DTITLE=Willie King - One Love
DYEAR=2006
DGENRE=Blues
TTITLE0=Sweet Potato Man
TTITLE1=Like It Like That
TTITLE2=Ride Sally Ride
TTITLE3=Holding The Line
TTITLE4=Writing In The Sky (Katrina)
TTITLE5=Spoonful
TTITLE6=Mamaluchi
TTITLE7=One Love
TTITLE8=Mama Killed A Chicken
TTITLE9=One Love (Monologue)
EXTD=
EXTT0=
EXTT1=
EXTT2=
EXTT3=
EXTT4=
EXTT5=
EXTT6=
EXTT7=
EXTT8=
EXTT9=
PLAYORDER=
